<svg width="1920" height="413" viewBox="0 0 1920 413" fill="none" xmlns="http://www.w3.org/2000/svg">
<g opacity="0.5">
<path d="M823.601 229.382C823.601 270.263 792.501 303.459 754.201 303.459C715.901 303.459 684.801 270.263 684.801 229.382C684.801 188.501 715.901 155.305 754.201 155.305C792.501 155.305 823.601 188.501 823.601 229.382Z" fill="#F0F1DC"/>
</g>
<g opacity="0.5">
<path d="M718.499 203.233C718.499 244.114 687.399 277.31 649.099 277.31C610.799 277.31 579.699 244.114 579.699 203.233C579.699 162.352 610.799 129.156 649.099 129.156C687.399 129.156 718.499 162.245 718.499 203.233Z" fill="#F0F1DC"/>
</g>
<g opacity="0.5">
<path d="M660.402 164.593C660.402 205.474 629.302 238.67 591.002 238.67C552.702 238.67 521.602 205.474 521.602 164.593C521.602 123.712 552.702 90.5156 591.002 90.5156C629.302 90.5156 660.402 123.605 660.402 164.593Z" fill="#F0F1DC"/>
</g>
<g opacity="0.5">
<path d="M625.698 235.788C625.698 276.669 594.598 309.865 556.298 309.865C517.998 309.865 486.898 276.669 486.898 235.788C486.898 194.907 517.998 161.711 556.298 161.711C594.598 161.711 625.698 194.8 625.698 235.788Z" fill="#F0F1DC"/>
</g>
<g opacity="0.5">
<path d="M579.698 197.573C579.698 238.454 548.598 271.65 510.298 271.65C471.998 271.65 440.898 238.454 440.898 197.573C440.898 156.692 471.998 123.496 510.298 123.496C548.598 123.496 579.698 156.692 579.698 197.573Z" fill="#F0F1DC"/>
</g>
<g opacity="0.5">
<path d="M393.802 142.072C393.802 173.666 369.802 199.284 340.202 199.284C310.602 199.284 286.602 173.666 286.602 142.072C286.602 110.477 310.602 84.8594 340.202 84.8594C369.802 84.8594 393.802 110.477 393.802 142.072Z" fill="#F0F1DC"/>
</g>
<g opacity="0.5">
<path d="M413.098 263.005C413.098 280.51 399.798 294.6 383.498 294.6C367.198 294.6 353.898 280.403 353.898 263.005C353.898 245.606 367.198 231.41 383.498 231.41C399.798 231.41 413.098 245.5 413.098 263.005Z" fill="#F0F1DC"/>
</g>
<g opacity="0.5">
<path d="M241.302 281.896C241.302 313.491 217.302 339.108 187.702 339.108C158.102 339.108 134.102 313.491 134.102 281.896C134.102 250.301 158.102 224.684 187.702 224.684C217.302 224.684 241.302 250.194 241.302 281.896Z" fill="#F0F1DC"/>
</g>
<g opacity="0.5">
<path d="M269.598 277.201C269.598 308.795 245.598 334.413 215.998 334.413C186.398 334.413 162.398 308.795 162.398 277.201C162.398 245.606 186.398 219.988 215.998 219.988C245.598 219.988 269.598 245.606 269.598 277.201Z" fill="#F0F1DC"/>
</g>
<g opacity="0.5">
<path d="M399.399 251.048C399.399 282.643 375.399 308.26 345.799 308.26C316.199 308.26 292.199 282.643 292.199 251.048C292.199 219.453 316.199 193.836 345.799 193.836C375.399 193.836 399.399 219.453 399.399 251.048Z" fill="#F0F1DC"/>
</g>
<g opacity="0.5">
<path d="M470.499 229.382C470.499 270.263 439.399 303.459 401.099 303.459C362.799 303.459 331.699 270.263 331.699 229.382C331.699 188.501 362.799 155.305 401.099 155.305C439.399 155.305 470.499 188.501 470.499 229.382Z" fill="#F0F1DC"/>
</g>
<g opacity="0.5">
<path d="M875.201 203.233C875.201 264.928 828.301 314.989 770.501 314.989C712.701 314.989 665.801 264.928 665.801 203.233C665.801 141.537 712.601 91.4766 770.501 91.4766C828.401 91.4766 875.201 141.431 875.201 203.233Z" fill="#F0F1DC"/>
</g>
<g opacity="0.5">
<path d="M697.502 124.029C697.502 185.725 650.602 235.785 592.802 235.785C535.002 235.785 488.102 185.725 488.102 124.029C488.102 62.3341 535.002 12.2734 592.802 12.2734C650.602 12.2734 697.502 62.2274 697.502 124.029Z" fill="#F0F1DC"/>
</g>
<g opacity="0.5">
<path d="M1577.8 249.555C1577.8 285.633 1550.4 314.879 1516.6 314.879C1482.8 314.879 1455.4 285.633 1455.4 249.555C1455.4 213.477 1482.8 184.23 1516.6 184.23C1550.4 184.23 1577.8 213.477 1577.8 249.555Z" fill="#F0F1DC"/>
</g>
<g opacity="0.5">
<path d="M1702.6 319.258C1702.6 355.336 1675.2 384.582 1641.4 384.582C1607.6 384.582 1580.2 355.336 1580.2 319.258C1580.2 283.18 1607.6 253.934 1641.4 253.934C1675.2 253.934 1702.6 283.18 1702.6 319.258Z" fill="#F0F1DC"/>
</g>
<g opacity="0.5">
<path d="M339.402 193.409C339.402 234.29 308.302 267.486 270.002 267.486C231.702 267.486 200.602 234.29 200.602 193.409C200.602 152.528 231.702 119.332 270.002 119.332C308.302 119.332 339.402 152.528 339.402 193.409Z" fill="#F0F1DC"/>
</g>
<g opacity="0.5">
<path d="M239.3 251.054C239.3 291.935 208.2 325.131 169.9 325.131C131.6 325.131 100.5 291.935 100.5 251.054C100.5 210.172 131.6 176.977 169.9 176.977C208.2 176.977 239.3 210.172 239.3 251.054Z" fill="#F0F1DC"/>
</g>
<g opacity="0.5">
<path d="M201.698 184.229C201.698 225.11 170.598 258.306 132.298 258.306C93.9984 258.306 62.8984 225.11 62.8984 184.229C62.8984 143.348 93.9984 110.152 132.298 110.152C170.598 110.152 201.698 143.241 201.698 184.229Z" fill="#F0F1DC"/>
</g>
<g opacity="0.5">
<path d="M139.8 221.909C139.8 262.79 108.7 295.986 70.4 295.986C32.1 295.986 1 262.79 1 221.909C1 181.028 32.1 147.832 70.4 147.832C108.7 147.832 139.8 180.921 139.8 221.909Z" fill="#F0F1DC"/>
</g>
<g opacity="0.5">
<path d="M92.8 277.198C92.8 318.079 61.7 351.275 23.4 351.275C-14.9 351.275 -46 318.079 -46 277.198C-46 236.317 -14.9 203.121 23.4 203.121C61.7 203.121 92.8 236.317 92.8 277.198Z" fill="#F0F1DC"/>
</g>
<g opacity="0.5">
<path d="M169.902 277.198C169.902 318.079 138.802 351.275 100.502 351.275C62.2016 351.275 31.1016 318.079 31.1016 277.198C31.1016 236.317 62.2016 203.121 100.502 203.121C138.802 203.121 169.902 236.317 169.902 277.198Z" fill="#F0F1DC"/>
</g>
<g opacity="0.5">
<path d="M1144.2 137.163C1144.2 178.044 1113.1 211.24 1074.8 211.24C1036.5 211.24 1005.4 178.044 1005.4 137.163C1005.4 96.2818 1036.5 63.0859 1074.8 63.0859C1113.1 63.0859 1144.2 96.2818 1144.2 137.163Z" fill="#F0F1DC"/>
</g>
<g opacity="0.5">
<path d="M1099.3 221.909C1099.3 262.79 1068.2 295.986 1029.9 295.986C991.6 295.986 960.5 262.79 960.5 221.909C960.5 181.028 991.6 147.832 1029.9 147.832C1068.2 147.832 1099.3 180.921 1099.3 221.909Z" fill="#F0F1DC"/>
</g>
<g opacity="0.5">
<path d="M1158.6 277.198C1158.6 318.079 1127.5 351.275 1089.2 351.275C1050.9 351.275 1019.8 318.079 1019.8 277.198C1019.8 236.317 1050.9 203.121 1089.2 203.121C1127.5 203.121 1158.6 236.317 1158.6 277.198Z" fill="#F0F1DC"/>
</g>
<g opacity="0.5">
<path d="M1228 193.409C1228 234.29 1196.9 267.486 1158.6 267.486C1120.3 267.486 1089.2 234.29 1089.2 193.409C1089.2 152.528 1120.3 119.332 1158.6 119.332C1196.9 119.332 1228 152.528 1228 193.409Z" fill="#F0F1DC"/>
</g>
<g opacity="0.5">
<path d="M1272.9 229.382C1272.9 270.263 1241.8 303.459 1203.5 303.459C1165.2 303.459 1134.1 270.263 1134.1 229.382C1134.1 188.501 1165.2 155.305 1203.5 155.305C1241.8 155.305 1272.9 188.501 1272.9 229.382Z" fill="#F0F1DC"/>
</g>
<g opacity="0.5">
<path d="M1358.9 184.231C1358.9 214.865 1335.6 239.735 1306.9 239.735C1278.2 239.735 1254.9 214.865 1254.9 184.231C1254.9 153.597 1278.2 128.727 1306.9 128.727C1335.6 128.727 1358.9 153.49 1358.9 184.231Z" fill="#F0F1DC"/>
</g>
<g opacity="0.5">
<path d="M1504.3 267.487C1504.3 308.368 1473.2 341.564 1434.9 341.564C1396.6 341.564 1365.5 308.368 1365.5 267.487C1365.5 226.606 1396.6 193.41 1434.9 193.41C1473.2 193.41 1504.3 226.606 1504.3 267.487Z" fill="#F0F1DC"/>
</g>
<g opacity="0.5">
<path d="M1614.7 197.573C1614.7 238.454 1583.6 271.65 1545.3 271.65C1507 271.65 1475.9 238.454 1475.9 197.573C1475.9 156.692 1507 123.496 1545.3 123.496C1583.6 123.496 1614.7 156.692 1614.7 197.573Z" fill="#F0F1DC"/>
</g>
<g opacity="0.5">
<path d="M1697 262.578C1697 309.543 1661.3 347.542 1617.3 347.542C1573.3 347.542 1537.6 309.436 1537.6 262.578C1537.6 215.719 1573.3 177.613 1617.3 177.613C1661.3 177.613 1697 215.612 1697 262.578Z" fill="#F0F1DC"/>
</g>
<g opacity="0.5">
<path d="M1472.3 306.237C1472.3 347.118 1441.2 380.314 1402.9 380.314C1364.6 380.314 1333.5 347.118 1333.5 306.237C1333.5 265.356 1364.6 232.16 1402.9 232.16C1441.2 232.16 1472.3 265.356 1472.3 306.237Z" fill="#F0F1DC"/>
</g>
<g opacity="0.5">
<path d="M1755.9 129.155C1755.9 170.036 1724.8 203.232 1686.5 203.232C1648.2 203.232 1617.1 170.036 1617.1 129.155C1617.1 88.274 1648.2 55.0781 1686.5 55.0781C1724.8 55.0781 1755.9 88.1673 1755.9 129.155Z" fill="#F0F1DC"/>
</g>
<g opacity="0.5">
<path d="M1825.3 197.573C1825.3 238.454 1794.2 271.65 1755.9 271.65C1717.6 271.65 1686.5 238.454 1686.5 197.573C1686.5 156.692 1717.6 123.496 1755.9 123.496C1794.2 123.496 1825.3 156.692 1825.3 197.573Z" fill="#F0F1DC"/>
</g>
<g opacity="0.5">
<path d="M1936.4 176.972C1936.4 217.853 1905.3 251.049 1867 251.049C1828.7 251.049 1797.6 217.853 1797.6 176.972C1797.6 136.09 1828.7 102.895 1867 102.895C1905.3 102.895 1936.4 136.09 1936.4 176.972Z" fill="#F0F1DC"/>
</g>
<g opacity="0.5">
<path d="M1887.4 229.382C1887.4 270.263 1856.3 303.459 1818 303.459C1779.7 303.459 1748.6 270.263 1748.6 229.382C1748.6 188.501 1779.7 155.305 1818 155.305C1856.3 155.305 1887.4 188.501 1887.4 229.382Z" fill="#F0F1DC"/>
</g>
<g opacity="0.5">
<path d="M1743.9 193.409C1743.9 234.29 1712.8 267.486 1674.5 267.486C1636.2 267.486 1605.1 234.29 1605.1 193.409C1605.1 152.528 1636.2 119.332 1674.5 119.332C1712.8 119.332 1743.9 152.528 1743.9 193.409Z" fill="#F0F1DC"/>
</g>
<g opacity="0.5">
<path d="M1463.9 230.984C1463.9 280.084 1426.6 319.898 1380.6 319.898C1334.6 319.898 1297.3 280.084 1297.3 230.984C1297.3 181.884 1334.6 142.07 1380.6 142.07C1426.6 142.07 1463.9 181.884 1463.9 230.984Z" fill="#F0F1DC"/>
</g>
<g opacity="0.5">
<path d="M1383 258.519C1383 307.619 1345.7 347.433 1299.7 347.433C1253.7 347.433 1216.4 307.619 1216.4 258.519C1216.4 209.419 1253.7 169.605 1299.7 169.605C1345.7 169.605 1383 209.526 1383 258.519Z" fill="#F0F1DC"/>
</g>
<g opacity="0.5">
<path d="M1301.8 123.608C1301.8 164.489 1270.7 197.685 1232.4 197.685C1194.1 197.685 1163 164.489 1163 123.608C1163 82.7272 1194.1 49.5312 1232.4 49.5312C1270.7 49.5312 1301.8 82.6204 1301.8 123.608Z" fill="#F0F1DC"/>
</g>
<g opacity="0.5">
<path d="M1184 271.65C1184 331.851 1138.2 380.738 1081.8 380.738C1025.4 380.738 979.602 331.851 979.602 271.65C979.602 211.449 1025.4 162.562 1081.8 162.562C1138.2 162.562 1184 211.449 1184 271.65Z" fill="#F0F1DC"/>
</g>
<g opacity="0.5">
<path d="M628.599 303.459C628.599 363.66 582.799 412.546 526.399 412.546C469.999 412.546 424.199 363.66 424.199 303.459C424.199 243.258 469.999 194.371 526.399 194.371C582.799 194.371 628.599 243.151 628.599 303.459Z" fill="#F0F1DC"/>
</g>
<g opacity="0.5">
<path d="M1256.4 260.02C1256.4 288.839 1234.5 312.215 1207.5 312.215C1180.5 312.215 1158.6 288.839 1158.6 260.02C1158.6 231.2 1180.5 207.824 1207.5 207.824C1234.5 207.824 1256.4 231.2 1256.4 260.02Z" fill="#F0F1DC"/>
</g>
<g opacity="0.5">
<path d="M1331.5 238.561C1331.5 279.443 1300.4 312.638 1262.1 312.638C1223.8 312.638 1192.7 279.443 1192.7 238.561C1192.7 197.68 1223.8 164.484 1262.1 164.484C1300.4 164.484 1331.5 197.68 1331.5 238.561Z" fill="#F0F1DC"/>
</g>
<g opacity="0.5">
<path d="M1136.8 164.593C1136.8 205.474 1105.7 238.67 1067.4 238.67C1029.1 238.67 998 205.474 998 164.593C998 123.712 1029.1 90.5156 1067.4 90.5156C1105.7 90.5156 1136.8 123.605 1136.8 164.593Z" fill="#F0F1DC"/>
</g>
<g opacity="0.5">
<path d="M1062.7 216.147C1062.7 257.028 1031.6 290.224 993.298 290.224C954.998 290.224 923.898 257.028 923.898 216.147C923.898 175.266 954.998 142.07 993.298 142.07C1031.6 142.07 1062.7 175.266 1062.7 216.147Z" fill="#F0F1DC"/>
</g>
<g opacity="0.5">
<path d="M774.3 74.077C774.3 114.958 743.2 148.154 704.9 148.154C666.6 148.154 635.5 114.958 635.5 74.077C635.5 33.1959 666.6 0 704.9 0C743.2 0 774.3 33.1959 774.3 74.077Z" fill="#F0F1DC"/>
</g>
<g opacity="0.5">
<path d="M756.101 142.069C756.101 182.95 725.001 216.146 686.701 216.146C648.401 216.146 617.301 182.95 617.301 142.069C617.301 101.188 648.401 67.9922 686.701 67.9922C725.001 67.9922 756.101 101.188 756.101 142.069Z" fill="#F0F1DC"/>
</g>
<g opacity="0.5">
<path d="M726.402 221.909C726.402 262.79 695.302 295.986 657.002 295.986C618.702 295.986 587.602 262.79 587.602 221.909C587.602 181.028 618.702 147.832 657.002 147.832C695.302 147.832 726.402 180.921 726.402 221.909Z" fill="#F0F1DC"/>
</g>
<g opacity="0.5">
<path d="M556.3 251.054C556.3 291.935 525.2 325.131 486.9 325.131C448.6 325.131 417.5 291.935 417.5 251.054C417.5 210.172 448.6 176.977 486.9 176.977C525.2 176.977 556.3 210.172 556.3 251.054Z" fill="#F0F1DC"/>
</g>
<g opacity="0.5">
<path d="M444.198 221.909C444.198 262.79 413.098 295.986 374.798 295.986C336.498 295.986 305.398 262.79 305.398 221.909C305.398 181.028 336.498 147.832 374.798 147.832C413.098 147.832 444.198 180.921 444.198 221.909Z" fill="#F0F1DC"/>
</g>
<g opacity="0.5">
<path d="M374.8 251.054C374.8 291.935 343.7 325.131 305.4 325.131C267.1 325.131 236 291.935 236 251.054C236 210.172 267.1 176.977 305.4 176.977C343.7 176.977 374.8 210.172 374.8 251.054Z" fill="#F0F1DC"/>
</g>
<g opacity="0.5">
<path d="M503.501 110.153C503.501 127.659 490.201 141.748 473.901 141.748C457.601 141.748 444.301 127.552 444.301 110.153C444.301 92.7549 457.601 78.5586 473.901 78.5586C490.201 78.5586 503.501 92.6482 503.501 110.153Z" fill="#F0F1DC"/>
</g>
<g opacity="0.5">
<path d="M157.2 268.232C157.2 285.737 143.9 299.826 127.6 299.826C111.3 299.826 98 285.63 98 268.232C98 250.833 111.3 236.637 127.6 236.637C143.9 236.637 157.2 250.833 157.2 268.232Z" fill="#F0F1DC"/>
</g>
<g opacity="0.5">
<path d="M64.5016 135.45C64.5016 149.432 53.9016 160.747 40.8016 160.747C27.7016 160.747 17.1016 149.432 17.1016 135.45C17.1016 121.467 27.6016 110.152 40.8016 110.152C54.0016 110.152 64.5016 121.467 64.5016 135.45Z" fill="#F0F1DC"/>
</g>
<g opacity="0.5">
<path d="M1470.1 185.828C1470.1 199.811 1459.5 211.126 1446.4 211.126C1433.3 211.126 1422.7 199.811 1422.7 185.828C1422.7 171.846 1433.3 160.531 1446.4 160.531C1459.5 160.531 1470.1 171.846 1470.1 185.828Z" fill="#F0F1DC"/>
</g>
<g opacity="0.5">
<path d="M1321.1 115.813C1321.1 129.796 1310.5 141.11 1297.4 141.11C1284.3 141.11 1273.7 129.796 1273.7 115.813C1273.7 101.83 1284.3 90.5156 1297.4 90.5156C1310.5 90.5156 1321.1 101.83 1321.1 115.813Z" fill="#F0F1DC"/>
</g>
<g opacity="0.5">
<path d="M1027.8 60.5199C1027.8 74.5027 1017.2 85.8171 1004.1 85.8171C990.998 85.8171 980.398 74.5027 980.398 60.5199C980.398 46.537 990.998 35.2227 1004.1 35.2227C1017.2 35.2227 1027.8 46.537 1027.8 60.5199Z" fill="#F0F1DC"/>
</g>
<g opacity="0.5">
<path d="M1781.2 115.812C1781.2 126.806 1772.8 135.772 1762.5 135.772C1752.2 135.772 1743.8 126.806 1743.8 115.812C1743.8 104.818 1752.2 95.8516 1762.5 95.8516C1772.8 95.8516 1781.2 104.818 1781.2 115.812Z" fill="#F0F1DC"/>
</g>
<g opacity="0.5">
<path d="M1634 138.44C1634 146.018 1628.2 152.209 1621.2 152.209C1614.2 152.209 1608.4 146.018 1608.4 138.44C1608.4 130.861 1614.2 124.777 1621.2 124.777C1628.2 124.777 1634 130.861 1634 138.44Z" fill="#F0F1DC"/>
</g>
<g opacity="0.5">
<path d="M1913.4 109.514C1913.4 117.093 1907.6 123.284 1900.6 123.284C1893.6 123.284 1887.8 117.093 1887.8 109.514C1887.8 101.936 1893.6 95.8516 1900.6 95.8516C1907.6 95.8516 1913.4 102.042 1913.4 109.514Z" fill="#F0F1DC"/>
</g>
<g opacity="0.5">
<path d="M1801.7 233.651C1801.7 241.229 1795.9 247.42 1788.9 247.42C1781.9 247.42 1776.1 241.229 1776.1 233.651C1776.1 226.072 1781.9 219.988 1788.9 219.988C1795.9 219.988 1801.7 226.072 1801.7 233.651Z" fill="#F0F1DC"/>
</g>
<g opacity="0.5">
<path d="M1603.5 306.233C1603.5 313.811 1597.7 320.002 1590.7 320.002C1583.7 320.002 1577.9 313.811 1577.9 306.233C1577.9 298.654 1583.7 292.57 1590.7 292.57C1597.7 292.57 1603.5 298.654 1603.5 306.233Z" fill="#F0F1DC"/>
</g>
<g opacity="0.5">
<path d="M1595.4 287.448C1595.4 295.026 1589.6 301.217 1582.6 301.217C1575.6 301.217 1569.8 295.026 1569.8 287.448C1569.8 279.869 1575.6 273.785 1582.6 273.785C1589.6 273.785 1595.4 279.976 1595.4 287.448Z" fill="#F0F1DC"/>
</g>
<g opacity="0.5">
<path d="M1582.5 273.784C1582.5 281.362 1576.7 287.553 1569.7 287.553C1562.7 287.553 1556.9 281.362 1556.9 273.784C1556.9 266.205 1562.7 260.121 1569.7 260.121C1576.7 260.121 1582.5 266.205 1582.5 273.784Z" fill="#F0F1DC"/>
</g>
<path d="M1908.9 244.965C1901.6 217.639 1878 197.679 1850 197.679C1822 197.679 1800 216.465 1791.9 242.403C1785.7 236.959 1777.8 233.757 1769.2 233.757C1756.6 233.757 1745.5 240.802 1739.2 251.369C1730.4 246.032 1720.2 243.043 1709.3 243.043C1679.4 243.043 1654.5 265.885 1649.1 296.199C1642.8 293.851 1636.1 292.57 1629.1 292.57C1610.2 292.57 1593.3 301.75 1582 316.053C1575.8 305.059 1564.4 297.694 1551.5 297.694C1545.5 297.694 1539.8 299.295 1534.9 302.07C1523.7 287.874 1506.9 278.801 1488.1 278.801C1464.6 278.801 1444.3 292.89 1434 313.598C1423.3 303.778 1409.4 297.907 1394.2 297.907C1391.6 297.907 1389.1 298.121 1386.6 298.441C1381.3 244.111 1338.2 201.735 1285.9 201.735C1233.6 201.735 1192.2 242.403 1185.6 295.239C1174.5 283.497 1159.3 276.239 1142.4 276.239C1129 276.239 1116.5 280.936 1106.4 288.728C1088 261.189 1057.9 243.257 1023.8 243.257C1014 243.257 1004.6 244.751 995.6 247.526C990.6 241.122 983.7 236.425 975.8 234.611C970.4 220.948 957.7 211.342 943 211.342C931.9 211.342 922 216.785 915.5 225.218C900.4 197.039 871.9 178.039 839.3 178.039C806.7 178.039 778.5 196.825 763.3 224.898C750.9 211.982 734 203.977 715.3 203.977C694.6 203.977 676.1 213.69 663.5 229.167C654.9 225.004 645.4 222.763 635.3 222.763C605.3 222.763 579.7 243.363 570.4 272.076C569.2 271.97 567.9 271.863 566.6 271.863C556.5 271.863 547.4 276.346 541 283.497C529.4 274.104 515 268.447 499.3 268.447C496.9 268.447 494.6 268.554 492.3 268.874C484.1 246.566 463.8 230.768 440 230.768C416.2 230.768 394.6 247.633 386.9 271.009C379.6 267.38 371.5 265.245 362.9 265.245C354.3 265.245 346.5 267.273 339.3 270.795C330.3 239.841 303.2 217.426 271.3 217.426C236.2 217.426 207 244.538 201.2 280.295C193.4 277.2 185.1 275.492 176.3 275.492C157.5 275.492 140.4 283.284 127.6 295.986C119.7 263.217 91.8 239.094 58.7 239.094C39 239.094 21.1 247.633 8.2 261.509C-1.7 232.263 -28 211.448 -58.8 211.448C-98.1 211.448 -130 245.498 -130 287.447C-130 329.395 -98.1 363.445 -58.8 363.445C-44.3 363.445 -30.8 358.749 -19.6 350.85V394.72H1900.4V375.293C1934.2 375.293 1961.6 346.047 1961.6 309.969C1961.8 276.666 1938.8 249.341 1908.9 244.965Z" fill="#F1F2DD"/>
</svg>
