<svg width="1920" height="66" viewBox="0 0 1920 66" fill="none" xmlns="http://www.w3.org/2000/svg">
<g clip-path="url(#clip0_365_513)">
<path d="M-72.8291 0.000354374L-72.9652 47.6257C-65.3072 53.5351 -59.123 60.0711 -43.6683 60.1153C-17.1748 60.1909 -17.114 38.954 9.37955 39.0297C35.8731 39.1053 35.7073 60.342 62.201 60.4176C88.6945 60.4933 88.7551 39.2564 115.249 39.332C141.742 39.4077 141.682 60.6446 168.175 60.7203C194.669 60.796 194.73 39.5591 221.223 39.6347C247.717 39.7104 247.551 60.947 274.045 61.0227C300.538 61.0984 300.599 39.8614 327.092 39.9371C353.586 40.0128 353.525 61.2497 380.019 61.3254C406.512 61.4011 406.573 40.1641 433.067 40.2398C459.56 40.3155 459.395 61.5521 485.888 61.6278C512.382 61.7034 512.442 40.4665 538.936 40.5422C565.43 40.6179 565.264 61.8545 591.757 61.9302C618.251 62.0058 618.312 40.7689 644.805 40.8446C671.299 40.9202 671.238 62.1572 697.732 62.2328C724.225 62.3085 724.286 41.0716 750.78 41.1472C777.273 41.2229 777.107 62.4595 803.601 62.5352C830.095 62.6109 830.155 41.374 856.649 41.4496C883.037 41.525 882.977 62.7619 909.47 62.8376C935.964 62.9133 936.025 41.6763 962.518 41.752C989.012 41.8277 988.951 63.0646 1015.44 63.1403C1041.94 63.216 1042 41.979 1068.49 42.0547C1094.99 42.1304 1094.82 63.367 1121.31 63.4427C1147.81 63.5183 1147.87 42.2814 1174.36 42.3571C1200.86 42.4328 1200.69 63.6694 1227.18 63.7451C1253.68 63.8207 1253.74 42.5838 1280.23 42.6595C1306.72 42.7351 1306.66 63.9721 1333.16 64.0477C1359.65 64.1234 1359.71 42.8865 1386.21 42.9622C1412.7 43.0378 1412.53 64.2745 1439.03 64.3501C1465.52 64.4258 1465.58 43.1889 1492.07 43.2645C1518.57 43.3402 1518.51 64.5771 1544.9 64.6525C1571.28 64.7279 1571.45 43.4912 1597.94 43.5669C1624.44 43.6426 1624.38 64.8795 1650.87 64.9552C1677.36 65.0309 1677.42 43.7939 1703.92 43.8696C1730.41 43.9453 1730.25 65.1819 1756.74 65.2576C1783.23 65.3332 1783.29 44.0963 1809.79 44.172C1836.28 44.2477 1836.22 65.4846 1862.61 65.56C1889 65.6353 1889.16 44.3987 1915.66 44.4744C1931.74 44.5203 1938.34 53.055 1946.94 59.3876L1947.1 5.76966L-72.8291 0.000354374Z" fill="#F1F2DD"/>
</g>
<defs>
<clipPath id="clip0_365_513">
<rect width="2019.93" height="60.0314" fill="white" transform="translate(1946.93 65.8008) rotate(-179.836)"/>
</clipPath>
</defs>
</svg>
