<svg width="647" height="218" viewBox="0 0 647 218" fill="none" xmlns="http://www.w3.org/2000/svg">
<path d="M14.9531 203.527L14.237 204.225L14.2401 204.228L14.9531 203.527ZM13.1367 17.4062L12.3367 16.8062L12.3339 16.81L13.1367 17.4062ZM80.1016 6.50781L79.6731 7.41137L79.6767 7.41305L80.1016 6.50781ZM98.75 23.2188L97.8958 23.7387L97.8983 23.7428L98.75 23.2188ZM105.531 87.8828V88.8828H106.531V87.8828H105.531ZM63.1484 87.8828H62.1484V88.8828H63.1484V87.8828ZM60.7266 43.5625L59.9128 44.1437L59.9179 44.1508L59.923 44.1577L60.7266 43.5625ZM45.2266 44.5312L46.1261 44.9682L46.1308 44.9583L45.2266 44.5312ZM45.7109 175.07L44.8917 175.644L44.898 175.653L44.9045 175.662L45.7109 175.07ZM60.8477 174.223L59.9581 173.766L59.9531 173.775L59.9484 173.785L60.8477 174.223ZM63.1484 124.211V123.211H62.1484V124.211H63.1484ZM106.016 124.211H107.016V123.211H106.016V124.211ZM91.8477 205.344L92.512 206.091L92.5156 206.088L91.8477 205.344ZM52.25 216.938C37.0567 216.938 24.8959 212.214 15.6662 202.826L14.2401 204.228C23.901 214.055 36.6048 218.938 52.25 218.938V216.938ZM15.6692 202.829C6.53477 193.459 1.90625 180.297 1.90625 163.203H-0.09375C-0.09375 180.662 4.64232 194.382 14.237 204.225L15.6692 202.829ZM1.90625 163.203V64.875H-0.09375V163.203H1.90625ZM1.90625 64.875C1.90625 44.3192 5.96446 28.7412 13.9395 18.0025L12.3339 16.81C4.00169 28.0296 -0.09375 44.0975 -0.09375 64.875H1.90625ZM13.9367 18.0063C21.9212 7.36033 34.9285 1.9375 53.2188 1.9375V-0.0625C34.535 -0.0625 20.821 5.49384 12.3367 16.8062L13.9367 18.0063ZM53.2188 1.9375C63.1859 1.9375 71.9966 3.77096 79.6731 7.41136L80.5301 5.60426C72.5451 1.81759 63.4339 -0.0625 53.2188 -0.0625V1.9375ZM79.6767 7.41305C87.4113 11.0436 93.4777 16.4803 97.8958 23.7387L99.6042 22.6988C94.9807 15.103 88.6148 9.39913 80.5265 5.60258L79.6767 7.41305ZM97.8983 23.7428C102.297 30.8908 104.531 39.9794 104.531 51.0703H106.531C106.531 39.7185 104.245 30.2394 99.6017 22.6947L97.8983 23.7428ZM104.531 51.0703V87.8828H106.531V51.0703H104.531ZM105.531 86.8828H63.1484V88.8828H105.531V86.8828ZM64.1484 87.8828V56.3984H62.1484V87.8828H64.1484ZM64.1484 56.3984C64.1484 53.1733 63.9448 50.4423 63.5256 48.2208C63.1091 46.013 62.4656 44.2302 61.5301 42.9673L59.923 44.1577C60.6021 45.0745 61.1696 46.5209 61.5603 48.5917C61.9485 50.6488 62.1484 53.246 62.1484 56.3984H64.1484ZM61.5403 42.9813C59.6957 40.3988 56.852 39.1719 53.2188 39.1719V41.1719C56.3668 41.1719 58.5283 42.2053 59.9128 44.1437L61.5403 42.9813ZM53.2188 39.1719C51.1228 39.1719 49.2919 39.5565 47.7751 40.3838C46.2457 41.218 45.0933 42.4716 44.3223 44.1042L46.1308 44.9583C46.7322 43.6847 47.5981 42.7585 48.7328 42.1396C49.88 41.5138 51.359 41.1719 53.2188 41.1719V39.1719ZM44.3271 44.0943C42.8632 47.1081 42.168 51.0708 42.168 55.9141H44.168C44.168 51.2313 44.8451 47.6055 46.1261 44.9682L44.3271 44.0943ZM42.168 55.9141V162.598H44.168V55.9141H42.168ZM42.168 162.598C42.168 168.527 43.0091 172.954 44.8917 175.644L46.5302 174.497C45.0221 172.342 44.168 168.455 44.168 162.598H42.168ZM44.9045 175.662C46.8849 178.362 49.699 179.703 53.2188 179.703V177.703C50.2802 177.703 48.0891 176.622 46.5173 174.479L44.9045 175.662ZM53.2188 179.703C55.1722 179.703 56.9001 179.301 58.357 178.445C59.8194 177.586 60.9454 176.308 61.7469 174.66L59.9484 173.785C59.2968 175.125 58.4248 176.086 57.3442 176.721C56.2581 177.359 54.8981 177.703 53.2188 177.703V179.703ZM61.7372 174.679C63.3676 171.505 64.1484 167.457 64.1484 162.598H62.1484C62.1484 167.264 61.3954 170.967 59.9581 173.766L61.7372 174.679ZM64.1484 162.598V124.211H62.1484V162.598H64.1484ZM63.1484 125.211H106.016V123.211H63.1484V125.211ZM105.016 124.211V164.535H107.016V124.211H105.016ZM105.016 164.535C105.016 183.117 100.33 196.388 91.1797 204.6L92.5156 206.088C102.256 197.346 107.016 183.412 107.016 164.535H105.016ZM91.1833 204.596C81.9758 212.781 69.0429 216.938 52.25 216.938V218.938C69.3633 218.938 82.8289 214.698 92.512 206.091L91.1833 204.596ZM132.051 202.559L131.295 203.214L131.301 203.22L132.051 202.559ZM131.93 15.1055L131.204 14.4172L131.201 14.4205L131.93 15.1055ZM210.277 15.1055L209.549 15.7905L209.552 15.7937L210.277 15.1055ZM210.156 202.559L209.404 201.9L209.403 201.901L210.156 202.559ZM163.535 174.465L162.661 174.951L162.667 174.961L163.535 174.465ZM171.164 216.938C154.341 216.938 141.607 211.883 132.801 201.897L131.301 203.22C140.577 213.739 153.919 218.938 171.164 218.938V216.938ZM132.806 201.903C124.058 191.816 119.609 177.191 119.609 157.875H117.609C117.609 177.471 122.121 192.635 131.295 203.214L132.806 201.903ZM119.609 157.875V56.6406H117.609V157.875H119.609ZM119.609 56.6406C119.609 38.5463 124.013 24.9863 132.658 15.7904L131.201 14.4205C122.086 24.1153 117.609 38.2453 117.609 56.6406H119.609ZM132.655 15.7937C141.372 6.60555 154.151 1.9375 171.164 1.9375V-0.0625C153.786 -0.0625 140.409 4.71477 131.204 14.4172L132.655 15.7937ZM171.164 1.9375C188.178 1.9375 200.914 6.60575 209.549 15.7904L211.006 14.4205C201.881 4.71457 188.541 -0.0625 171.164 -0.0625V1.9375ZM209.552 15.7937C218.276 24.9898 222.719 38.5485 222.719 56.6406H224.719C224.719 38.2432 220.2 24.1118 211.003 14.4172L209.552 15.7937ZM222.719 56.6406V157.875H224.719V56.6406H222.719ZM222.719 157.875C222.719 177.189 218.23 191.812 209.404 201.9L210.909 203.217C220.165 192.638 224.719 177.473 224.719 157.875H222.719ZM209.403 201.901C200.678 211.883 187.988 216.938 171.164 216.938V218.938C188.408 218.938 201.712 213.739 210.909 203.217L209.403 201.901ZM171.527 179.703C173.311 179.703 174.917 179.269 176.308 178.37C177.695 177.474 178.812 176.155 179.682 174.469C181.406 171.128 182.215 166.244 182.215 159.934H180.215C180.215 166.137 179.409 170.637 177.904 173.552C177.16 174.995 176.258 176.022 175.223 176.69C174.193 177.355 172.973 177.703 171.527 177.703V179.703ZM182.215 159.934V55.9141H180.215V159.934H182.215ZM182.215 55.9141C182.215 50.5993 181.423 46.447 179.711 43.5929C177.95 40.6575 175.257 39.1719 171.77 39.1719V41.1719C174.579 41.1719 176.609 42.31 177.996 44.6219C179.432 47.0152 180.215 50.734 180.215 55.9141H182.215ZM171.77 39.1719C167.923 39.1719 164.926 40.6497 162.943 43.6464C161.009 46.5707 160.113 50.8303 160.113 56.2773H162.113C162.113 50.9874 162.994 47.1943 164.611 44.75C166.181 42.3783 168.512 41.1719 171.77 41.1719V39.1719ZM160.113 56.2773V160.176H162.113V56.2773H160.113ZM160.113 160.176C160.113 166.828 160.916 171.81 162.661 174.95L164.409 173.979C162.925 171.307 162.113 166.763 162.113 160.176H160.113ZM162.667 174.961C164.488 178.148 167.516 179.703 171.527 179.703V177.703C168.112 177.703 165.812 176.433 164.403 173.969L162.667 174.961ZM240.914 216H239.914V217H240.914V216ZM240.914 2.875V1.875H239.914V2.875H240.914ZM334.156 15.7109L333.415 16.3822L333.418 16.3857L334.156 15.7109ZM335.125 199.531L334.285 198.988L334.283 198.992L335.125 199.531ZM283.781 178.34H282.781V179.34H283.781V178.34ZM300.008 43.3203L299.259 43.9829L299.272 43.9981L299.286 44.0128L300.008 43.3203ZM283.781 40.1719V39.1719H282.781V40.1719H283.781ZM241.914 216V2.875H239.914V216H241.914ZM240.914 3.875H299.523V1.875H240.914V3.875ZM299.523 3.875C314.677 3.875 325.911 8.09701 333.415 16.3822L334.897 15.0397C326.901 6.21029 315.047 1.875 299.523 1.875V3.875ZM333.418 16.3857C340.94 24.6124 344.781 36.7635 344.781 53.0078H346.781C346.781 36.4761 342.873 23.7626 334.894 15.0362L333.418 16.3857ZM344.781 53.0078V152.789H346.781V53.0078H344.781ZM344.781 152.789C344.781 172.875 341.242 188.236 334.285 198.988L335.965 200.075C343.216 188.868 346.781 173.067 346.781 152.789H344.781ZM334.283 198.992C327.505 209.587 315.544 215 298.07 215V217C315.956 217 328.698 211.434 335.967 200.07L334.283 198.992ZM298.07 215H240.914V217H298.07V215ZM283.781 179.34H291.168V177.34H283.781V179.34ZM291.168 179.34C295.23 179.34 298.461 178.356 300.673 176.212C302.892 174.063 303.914 170.914 303.914 166.957H301.914C301.914 170.589 300.979 173.131 299.282 174.776C297.579 176.426 294.937 177.34 291.168 177.34V179.34ZM303.914 166.957V57.0039H301.914V166.957H303.914ZM303.914 57.0039C303.914 53.4142 303.67 50.4216 303.166 48.0471C302.666 45.6927 301.887 43.8337 300.729 42.6278L299.286 44.0128C300.066 44.8252 300.741 46.2559 301.209 48.4626C301.674 50.6493 301.914 53.4894 301.914 57.0039H303.914ZM300.757 42.6577C299.656 41.4135 298.033 40.55 296.003 39.9945C293.97 39.4381 291.462 39.1719 288.504 39.1719V41.1719C291.358 41.1719 293.674 41.4304 295.475 41.9235C297.28 42.4175 298.503 43.1281 299.259 43.9829L300.757 42.6577ZM288.504 39.1719H283.781V41.1719H288.504V39.1719ZM282.781 40.1719V178.34H284.781V40.1719H282.781ZM361.281 216H360.281V217H361.281V216ZM361.281 2.875V1.875H360.281V2.875H361.281ZM402.453 2.875H403.453V1.875H402.453V2.875ZM402.453 216V217H403.453V216H402.453ZM362.281 216V2.875H360.281V216H362.281ZM361.281 3.875H402.453V1.875H361.281V3.875ZM401.453 2.875V216H403.453V2.875H401.453ZM402.453 215H361.281V217H402.453V215ZM419.406 216H418.406V217H419.406V216ZM419.406 2.875V1.875H418.406V2.875H419.406ZM463.242 2.875L464.224 2.68628L464.068 1.875H463.242V2.875ZM482.859 104.957L481.877 105.146L483.859 104.957H482.859ZM482.859 2.875V1.875H481.859V2.875H482.859ZM524.031 2.875H525.031V1.875H524.031V2.875ZM524.031 216V217H525.031V216H524.031ZM482.375 216L481.394 216.196L481.555 217H482.375V216ZM461.062 109.438L462.043 109.241L460.062 109.438H461.062ZM461.062 216V217H462.062V216H461.062ZM420.406 216V2.875H418.406V216H420.406ZM419.406 3.875H463.242V1.875H419.406V3.875ZM462.26 3.06372L481.877 105.146L483.841 104.768L464.224 2.68628L462.26 3.06372ZM483.859 104.957V2.875H481.859V104.957H483.859ZM482.859 3.875H524.031V1.875H482.859V3.875ZM523.031 2.875V216H525.031V2.875H523.031ZM524.031 215H482.375V217H524.031V215ZM483.356 215.804L462.043 109.241L460.082 109.634L481.394 216.196L483.356 215.804ZM460.062 109.438V216H462.062V109.438H460.062ZM461.062 215H419.406V217H461.062V215ZM626.598 9.65625L625.994 10.4532L625.999 10.4573L626.598 9.65625ZM646.82 75.2891V76.2891H647.82V75.2891H646.82ZM605.164 75.2891H604.164V76.2891H605.164V75.2891ZM603.227 44.8945L602.293 45.2535L602.299 45.2681L602.305 45.2826L603.227 44.8945ZM585.668 45.1367L584.769 44.6983L584.765 44.7072L584.761 44.7163L585.668 45.1367ZM585.547 173.375L584.618 173.746L584.623 173.759L584.629 173.771L585.547 173.375ZM603.348 173.375L602.426 172.986L602.422 172.996L603.348 173.375ZM605.648 128.691H606.648V127.691H605.648V128.691ZM594.266 128.691H593.266V129.691H594.266V128.691ZM594.266 91.8789V90.8789H593.266V91.8789H594.266ZM646.336 91.8789H647.336V90.8789H646.336V91.8789ZM646.336 216V217H647.336V216H646.336ZM629.262 216L628.335 216.376L628.588 217H629.262V216ZM621.996 198.078L622.923 197.702L622.141 195.775L621.124 197.589L621.996 198.078ZM586.879 216.938C571.933 216.938 560.852 211.606 553.46 201.017C546.022 190.363 542.227 174.258 542.227 152.547H540.227C540.227 174.429 544.04 191.019 551.82 202.162C559.645 213.371 571.389 218.938 586.879 218.938V216.938ZM542.227 152.547V60.6367H540.227V152.547H542.227ZM542.227 60.6367C542.227 40.8611 546.562 26.2161 555.057 16.5213C563.53 6.85184 576.293 1.9375 593.539 1.9375V-0.0625C575.911 -0.0625 562.517 4.97303 553.553 15.2033C544.61 25.4083 540.227 40.6129 540.227 60.6367H542.227ZM593.539 1.9375C607.793 1.9375 618.565 4.82326 625.994 10.4532L627.202 8.85928C619.292 2.86424 608.024 -0.0625 593.539 -0.0625V1.9375ZM625.999 10.4573C633.454 16.0287 638.633 24.2126 641.494 35.0979L643.428 34.5896C640.476 23.3551 635.08 14.7474 627.196 8.85524L625.999 10.4573ZM641.494 35.0979C644.372 46.0496 645.82 59.4405 645.82 75.2891H647.82C647.82 59.3303 646.363 45.7577 643.428 34.5896L641.494 35.0979ZM646.82 74.2891H605.164V76.2891H646.82V74.2891ZM606.164 75.2891V56.3984H604.164V75.2891H606.164ZM606.164 56.3984C606.164 51.7112 605.507 47.7344 604.148 44.5065L602.305 45.2826C603.529 48.1901 604.164 51.8825 604.164 56.3984H606.164ZM604.16 44.5356C603.485 42.7803 602.403 41.4138 600.901 40.4986C599.412 39.5908 597.583 39.1719 595.477 39.1719V41.1719C597.326 41.1719 598.767 41.54 599.86 42.2065C600.942 42.8655 601.757 43.8603 602.293 45.2535L604.16 44.5356ZM595.477 39.1719C590.321 39.1719 586.609 40.9271 584.769 44.6983L586.567 45.5751C587.956 42.7266 590.783 41.1719 595.477 41.1719V39.1719ZM584.761 44.7163C583.161 48.1687 582.367 51.9466 582.367 56.0352H584.367C584.367 52.2122 585.107 48.7245 586.575 45.5572L584.761 44.7163ZM582.367 56.0352V159.328H584.367V56.0352H582.367ZM582.367 159.328C582.367 165.133 583.101 169.954 584.618 173.746L586.475 173.004C585.086 169.53 584.367 164.987 584.367 159.328H582.367ZM584.629 173.771C585.468 175.714 586.717 177.219 588.391 178.228C590.057 179.231 592.073 179.703 594.387 179.703V177.703C592.341 177.703 590.704 177.287 589.423 176.515C588.151 175.747 587.16 174.588 586.465 172.979L584.629 173.771ZM594.387 179.703C596.774 179.703 598.841 179.234 600.529 178.231C602.228 177.22 603.473 175.709 604.273 173.754L602.422 172.996C601.769 174.593 600.794 175.746 599.507 176.512C598.208 177.284 596.52 177.703 594.387 177.703V179.703ZM604.269 173.764C605.874 169.963 606.648 165.053 606.648 159.086H604.648C604.648 164.906 603.889 169.522 602.426 172.986L604.269 173.764ZM606.648 159.086V128.691H604.648V159.086H606.648ZM605.648 127.691H594.266V129.691H605.648V127.691ZM595.266 128.691V91.8789H593.266V128.691H595.266ZM594.266 92.8789H646.336V90.8789H594.266V92.8789ZM645.336 91.8789V216H647.336V91.8789H645.336ZM646.336 215H629.262V217H646.336V215ZM630.188 215.624L622.923 197.702L621.069 198.454L628.335 216.376L630.188 215.624ZM621.124 197.589C613.885 210.493 602.525 216.938 586.879 216.938V218.938C603.201 218.938 615.253 212.142 622.868 198.567L621.124 197.589Z" fill="white"/>
</svg>
