<svg width="532" height="218" viewBox="0 0 532 218" fill="none" xmlns="http://www.w3.org/2000/svg">
<path d="M23.3711 216L22.3768 216.107L22.4727 217H23.3711V216ZM0.484375 2.875V1.875H-0.628761L-0.509908 2.98177L0.484375 2.875ZM42.1406 2.875L43.1368 2.78802L43.0571 1.875H42.1406V2.875ZM53.8867 137.41L52.8905 137.497L54.8828 137.499L53.8867 137.41ZM65.875 2.875V1.875H64.9601L64.8789 2.78624L65.875 2.875ZM105.594 2.875L106.59 2.79069L106.513 1.875H105.594V2.875ZM116.977 137.41L115.98 137.494H117.973L116.977 137.41ZM128.359 2.875V1.875H127.44L127.363 2.79069L128.359 2.875ZM170.5 2.875L171.494 2.98345L171.615 1.875H170.5V2.875ZM147.25 216V217H148.147L148.244 216.108L147.25 216ZM96.1484 216L95.1538 216.103L95.2469 217H96.1484V216ZM85.4922 113.434L86.4868 113.33L84.4971 113.335L85.4922 113.434ZM75.3203 216V217H76.226L76.3154 216.099L75.3203 216ZM24.3654 215.893L1.47866 2.76823L-0.509908 2.98177L22.3768 216.107L24.3654 215.893ZM0.484375 3.875H42.1406V1.875H0.484375V3.875ZM41.1444 2.96198L52.8905 137.497L54.8829 137.323L43.1368 2.78802L41.1444 2.96198ZM54.8828 137.499L66.8711 2.96376L64.8789 2.78624L52.8907 137.321L54.8828 137.499ZM65.875 3.875H105.594V1.875H65.875V3.875ZM104.597 2.95931L115.98 137.494L117.973 137.326L106.59 2.79069L104.597 2.95931ZM117.973 137.494L129.356 2.95931L127.363 2.79069L115.98 137.326L117.973 137.494ZM128.359 3.875H170.5V1.875H128.359V3.875ZM169.506 2.76655L146.256 215.892L148.244 216.108L171.494 2.98345L169.506 2.76655ZM147.25 215H96.1484V217H147.25V215ZM97.1431 215.897L86.4868 113.33L84.4975 113.537L95.1538 216.103L97.1431 215.897ZM84.4971 113.335L74.3252 215.901L76.3154 216.099L86.4873 113.532L84.4971 113.335ZM75.3203 215H23.3711V217H75.3203V215ZM194.961 202.559L194.205 203.214L194.211 203.22L194.961 202.559ZM194.84 15.1055L194.114 14.4172L194.111 14.4205L194.84 15.1055ZM273.188 15.1055L272.459 15.7905L272.462 15.7937L273.188 15.1055ZM273.066 202.559L272.314 201.9L272.313 201.901L273.066 202.559ZM226.445 174.465L225.571 174.951L225.577 174.961L226.445 174.465ZM234.074 216.938C217.251 216.938 204.518 211.883 195.711 201.897L194.211 203.22C203.488 213.739 216.83 218.938 234.074 218.938V216.938ZM195.716 201.903C186.968 191.816 182.52 177.191 182.52 157.875H180.52C180.52 177.471 185.032 192.635 194.205 203.214L195.716 201.903ZM182.52 157.875V56.6406H180.52V157.875H182.52ZM182.52 56.6406C182.52 38.5463 186.923 24.9863 195.568 15.7904L194.111 14.4205C184.997 24.1153 180.52 38.2453 180.52 56.6406H182.52ZM195.565 15.7937C204.282 6.60555 217.061 1.9375 234.074 1.9375V-0.0625C216.697 -0.0625 203.319 4.71477 194.114 14.4172L195.565 15.7937ZM234.074 1.9375C251.088 1.9375 263.824 6.60575 272.459 15.7904L273.916 14.4205C264.791 4.71457 251.451 -0.0625 234.074 -0.0625V1.9375ZM272.462 15.7937C281.186 24.9898 285.629 38.5485 285.629 56.6406H287.629C287.629 38.2432 283.11 24.1118 273.913 14.4172L272.462 15.7937ZM285.629 56.6406V157.875H287.629V56.6406H285.629ZM285.629 157.875C285.629 177.189 281.141 191.812 272.314 201.9L273.819 203.217C283.076 192.638 287.629 177.473 287.629 157.875H285.629ZM272.313 201.901C263.588 211.883 250.898 216.938 234.074 216.938V218.938C251.318 218.938 264.622 213.739 273.819 203.217L272.313 201.901ZM234.438 179.703C236.221 179.703 237.827 179.269 239.218 178.37C240.605 177.474 241.722 176.155 242.592 174.469C244.316 171.128 245.125 166.244 245.125 159.934H243.125C243.125 166.137 242.319 170.637 240.814 173.552C240.07 174.995 239.168 176.022 238.133 176.69C237.103 177.355 235.883 177.703 234.438 177.703V179.703ZM245.125 159.934V55.9141H243.125V159.934H245.125ZM245.125 55.9141C245.125 50.5993 244.334 46.447 242.621 43.5929C240.86 40.6575 238.167 39.1719 234.68 39.1719V41.1719C237.489 41.1719 239.519 42.31 240.906 44.6219C242.342 47.0152 243.125 50.734 243.125 55.9141H245.125ZM234.68 39.1719C230.833 39.1719 227.836 40.6497 225.854 43.6464C223.919 46.5707 223.023 50.8303 223.023 56.2773H225.023C225.023 50.9874 225.904 47.1943 227.521 44.75C229.091 42.3783 231.422 41.1719 234.68 41.1719V39.1719ZM223.023 56.2773V160.176H225.023V56.2773H223.023ZM223.023 160.176C223.023 166.828 223.826 171.81 225.571 174.95L227.319 173.979C225.835 171.307 225.023 166.763 225.023 160.176H223.023ZM225.577 174.961C227.398 178.148 230.426 179.703 234.438 179.703V177.703C231.022 177.703 228.722 176.433 227.314 173.969L225.577 174.961ZM303.824 216H302.824V217H303.824V216ZM303.824 2.875V1.875H302.824V2.875H303.824ZM393.918 10.3828L393.25 11.1267L393.256 11.132L393.918 10.3828ZM405.059 31.2109L404.079 31.4138L404.082 31.4241L405.059 31.2109ZM403.484 90.4258L402.566 90.0306L402.562 90.0396L403.484 90.4258ZM386.895 104.836L386.584 103.885L382.995 105.058L386.694 105.816L386.895 104.836ZM400.941 114.887L400.047 115.334L400.051 115.342L400.055 115.35L400.941 114.887ZM405.059 216V217H406.059V216H405.059ZM363.039 216H362.039V217H363.039V216ZM359.164 121.062L358.642 121.915L358.657 121.925L358.674 121.934L359.164 121.062ZM346.934 118.762V117.762H345.934V118.762H346.934ZM346.934 216V217H347.934V216H346.934ZM347.176 81.8281H346.176V82.8281H347.176V81.8281ZM347.176 42.3516V41.3516H346.176V42.3516H347.176ZM304.824 216V2.875H302.824V216H304.824ZM303.824 3.875H369.215V1.875H303.824V3.875ZM369.215 3.875C379.977 3.875 387.931 6.34776 393.25 11.1266L394.586 9.63898C388.764 4.40745 380.249 1.875 369.215 1.875V3.875ZM393.256 11.132C398.63 15.883 402.256 22.6146 404.079 31.4138L406.038 31.008C404.148 21.8854 400.347 14.7316 394.58 9.63361L393.256 11.132ZM404.082 31.4241C406 40.216 406.965 50.5957 406.965 62.5742H408.965C408.965 50.4954 407.992 39.9663 406.036 30.9978L404.082 31.4241ZM406.965 62.5742C406.965 74.129 405.478 83.2615 402.566 90.0306L404.403 90.821C407.465 83.7047 408.965 74.2694 408.965 62.5742H406.965ZM402.562 90.0396C399.784 96.6751 394.504 101.298 386.584 103.885L387.205 105.786C395.592 103.046 401.372 98.0618 404.407 90.8119L402.562 90.0396ZM386.694 105.816C393.144 107.137 397.542 110.323 400.047 115.334L401.836 114.44C399.013 108.794 394.046 105.28 387.095 103.856L386.694 105.816ZM400.055 115.35C402.701 120.407 404.059 127.054 404.059 135.352H406.059C406.059 126.858 404.672 119.861 401.828 114.423L400.055 115.35ZM404.059 135.352V216H406.059V135.352H404.059ZM405.059 215H363.039V217H405.059V215ZM364.039 216V132.566H362.039V216H364.039ZM364.039 132.566C364.039 129.402 363.712 126.769 363.018 124.709C362.322 122.644 361.23 121.077 359.654 120.191L358.674 121.934C359.682 122.501 360.527 123.578 361.123 125.348C361.72 127.122 362.039 129.515 362.039 132.566H364.039ZM359.687 120.21C356.938 118.525 352.627 117.762 346.934 117.762V119.762C352.543 119.762 356.385 120.532 358.642 121.915L359.687 120.21ZM345.934 118.762V216H347.934V118.762H345.934ZM346.934 215H303.824V217H346.934V215ZM347.176 82.8281H357.469V80.8281H347.176V82.8281ZM357.469 82.8281C359.135 82.8281 360.634 82.3702 361.924 81.434C363.203 80.5055 364.22 79.1479 365.007 77.4319C366.572 74.0249 367.309 69.0373 367.309 62.5742H365.309C365.309 68.9471 364.572 73.5864 363.19 76.5974C362.504 78.0904 361.68 79.1395 360.749 79.8155C359.828 80.4838 358.749 80.8281 357.469 80.8281V82.8281ZM367.309 62.5742C367.309 58.3951 367.147 54.9114 366.817 52.1333C366.491 49.3779 365.991 47.2297 365.266 45.7794L363.477 46.6738C364.043 47.8068 364.512 49.6748 364.831 52.3687C365.148 55.0398 365.309 58.4382 365.309 62.5742H367.309ZM365.266 45.7794C363.762 42.7727 360.932 41.3516 357.105 41.3516V43.3516C360.384 43.3516 362.397 44.5138 363.477 46.6738L365.266 45.7794ZM357.105 41.3516H347.176V43.3516H357.105V41.3516ZM346.176 42.3516V81.8281H348.176V42.3516H346.176ZM422.012 216H421.012V217H422.012V216ZM422.012 2.875V1.875H421.012V2.875H422.012ZM464.152 2.875H465.152V1.875H464.152V2.875ZM464.152 88.2461H463.152L465.126 88.4727L464.152 88.2461ZM484.012 2.875V1.875H483.218L483.038 2.64843L484.012 2.875ZM526.879 2.875L527.85 3.11243L528.153 1.875H526.879V2.875ZM503.023 100.477L502.052 100.239L501.993 100.479L502.053 100.719L503.023 100.477ZM531.844 216V217H533.124L532.814 215.758L531.844 216ZM487.645 216L486.669 216.22L486.845 217H487.645V216ZM464.395 112.828L465.37 112.608L463.395 112.828H464.395ZM464.395 216V217H465.395V216H464.395ZM423.012 216V2.875H421.012V216H423.012ZM422.012 3.875H464.152V1.875H422.012V3.875ZM463.152 2.875V88.2461H465.152V2.875H463.152ZM465.126 88.4727L484.986 3.10157L483.038 2.64843L463.178 88.0195L465.126 88.4727ZM484.012 3.875H526.879V1.875H484.012V3.875ZM525.907 2.63757L502.052 100.239L503.995 100.714L527.85 3.11243L525.907 2.63757ZM502.053 100.719L530.873 216.242L532.814 215.758L503.994 100.235L502.053 100.719ZM531.844 215H487.645V217H531.844V215ZM488.62 215.78L465.37 112.608L463.419 113.048L486.669 216.22L488.62 215.78ZM463.395 112.828V216H465.395V112.828H463.395ZM464.395 215H422.012V217H464.395V215Z" fill="white"/>
</svg>
