<svg width="1920" height="71" viewBox="0 0 1920 71" fill="none" xmlns="http://www.w3.org/2000/svg">
<g clip-path="url(#clip0_401_514)">
<path d="M1946.93 70.0453L1947.15 22.4202C1939.5 16.4968 1933.33 9.94941 1917.88 9.87682C1891.38 9.75238 1891.28 30.9892 1864.79 30.8647C1838.3 30.7403 1838.5 9.50401 1812.01 9.37957C1785.51 9.25513 1785.41 30.4919 1758.92 30.3675C1732.43 30.243 1732.53 9.00626 1706.03 8.88183C1679.54 8.75739 1679.44 29.9942 1652.95 29.8697C1626.45 29.7453 1626.66 8.50901 1600.16 8.38458C1573.67 8.26014 1573.57 29.4969 1547.08 29.3725C1520.58 29.2481 1520.68 8.01127 1494.19 7.88683C1467.7 7.7624 1467.6 28.9992 1441.1 28.8747C1414.61 28.7503 1414.82 7.51402 1388.32 7.38958C1361.83 7.26515 1361.73 28.5019 1335.24 28.3775C1308.74 28.2531 1308.95 7.01677 1282.45 6.89234C1255.96 6.7679 1255.86 28.0047 1229.37 27.8802C1202.87 27.7558 1202.97 6.51903 1176.48 6.39459C1149.99 6.27016 1149.89 27.5069 1123.39 27.3825C1096.9 27.2581 1097.11 6.02178 1070.61 5.89734C1044.12 5.77291 1044.02 27.0097 1017.53 26.8853C991.137 26.7613 991.237 5.52453 964.743 5.40009C938.25 5.27566 938.15 26.5124 911.657 26.388C885.163 26.2636 885.263 5.02679 858.77 4.90235C832.276 4.77791 832.176 26.0147 805.683 25.8903C779.19 25.7658 779.394 4.52954 752.901 4.4051C726.408 4.28066 726.308 25.5174 699.815 25.393C673.321 25.2686 673.526 4.03229 647.033 3.90785C620.539 3.78341 620.439 25.0202 593.946 24.8958C567.453 24.7713 567.552 3.53454 541.059 3.41011C514.565 3.28567 514.466 24.5225 487.972 24.398C461.479 24.2736 461.684 3.03729 435.19 2.91286C408.697 2.78842 408.597 24.0252 382.104 23.9008C355.61 23.7763 355.71 2.53955 329.322 2.41561C302.934 2.29167 302.729 23.528 276.235 23.4035C249.742 23.2791 249.842 2.0423 223.348 1.91786C196.855 1.79343 196.755 23.0302 170.262 22.9058C143.768 22.7813 143.973 1.54505 117.48 1.42062C90.9863 1.29618 90.8866 22.533 64.3932 22.4085C37.8998 22.2841 37.9995 1.04731 11.6112 0.923366C-14.777 0.799424 -14.9819 22.0357 -41.4753 21.9113C-57.5606 21.8357 -64.144 13.2889 -72.7352 6.94043L-72.987 60.558L1946.93 70.0453Z" fill="#F1F2DD"/>
</g>
<defs>
<clipPath id="clip0_401_514">
<rect width="2019.93" height="60.0314" fill="white" transform="translate(-72.7051 0.527344) rotate(0.269108)"/>
</clipPath>
</defs>
</svg>
