<svg width="1920" height="70" viewBox="0 0 1920 70" fill="none" xmlns="http://www.w3.org/2000/svg">
<g clip-path="url(#clip0_403_514)">
<path d="M1946.93 69.5179L1947.15 21.8929C1939.5 15.9694 1933.33 9.42206 1917.88 9.34948C1891.38 9.22504 1891.28 30.4618 1864.79 30.3374C1838.3 30.213 1838.5 8.97666 1812.01 8.85223C1785.51 8.72779 1785.41 29.9646 1758.92 29.8401C1732.43 29.7157 1732.53 8.47892 1706.03 8.35448C1679.54 8.23005 1679.44 29.4668 1652.95 29.3424C1626.45 29.218 1626.66 7.98167 1600.16 7.85723C1573.67 7.7328 1573.57 28.9696 1547.08 28.8451C1520.58 28.7207 1520.68 7.48393 1494.19 7.35949C1467.7 7.23506 1467.6 28.4718 1441.1 28.3474C1414.61 28.223 1414.82 6.98668 1388.32 6.86224C1361.83 6.73781 1361.73 27.9746 1335.24 27.8502C1308.74 27.7257 1308.95 6.48943 1282.45 6.36499C1255.96 6.24056 1255.86 27.4773 1229.37 27.3529C1202.87 27.2285 1202.97 5.99168 1176.48 5.86725C1149.99 5.74281 1149.89 26.9796 1123.39 26.8552C1096.9 26.7307 1097.11 5.49443 1070.61 5.37C1044.12 5.24556 1044.02 26.4823 1017.53 26.3579C991.137 26.234 991.237 4.99719 964.743 4.87275C938.25 4.74831 938.15 25.9851 911.657 25.8607C885.163 25.7362 885.263 4.49944 858.77 4.37501C832.276 4.25057 832.176 25.4874 805.683 25.3629C779.19 25.2385 779.394 4.00219 752.901 3.87776C726.408 3.75332 726.308 24.9901 699.815 24.8657C673.321 24.7412 673.526 3.50494 647.033 3.38051C620.539 3.25607 620.439 24.4929 593.946 24.3684C567.453 24.244 567.552 3.0072 541.059 2.88276C514.565 2.75833 514.466 23.9951 487.972 23.8707C461.479 23.7462 461.684 2.50995 435.19 2.38551C408.697 2.26108 408.597 23.4979 382.104 23.3734C355.61 23.249 355.71 2.01221 329.322 1.88826C302.934 1.76432 302.729 23.0006 276.235 22.8762C249.742 22.7517 249.842 1.51496 223.348 1.39052C196.855 1.26609 196.755 22.5029 170.262 22.3784C143.768 22.254 143.973 1.01771 117.48 0.893272C90.9863 0.768836 90.8866 22.0056 64.3932 21.8812C37.8998 21.7567 37.9995 0.519964 11.6112 0.396022C-14.777 0.27208 -14.9819 21.5084 -41.4753 21.3839C-57.5606 21.3084 -64.144 12.7615 -72.7352 6.41309L-72.987 60.0307L1946.93 69.5179Z" fill="white"/>
</g>
<defs>
<clipPath id="clip0_403_514">
<rect width="2019.93" height="60.0314" fill="white" transform="translate(-72.7051) rotate(0.269108)"/>
</clipPath>
</defs>
</svg>
